<svg xmlns="http://www.w3.org/2000/svg" version="1.1" xmlns:xlink="http://www.w3.org/1999/xlink" xmlns:svgjs="http://svgjs.com/svgjs" width="1440" height="560" preserveAspectRatio="none" viewBox="0 0 1440 560"><g mask="url(&quot;#SvgjsMask1006&quot;)" fill="none"><rect width="1440" height="560" x="0" y="0" fill="rgba(14, 42, 71, 1)"></rect><path d="M-74.35 383.76L-74.35 383.76" stroke="rgba(19, 46, 101, 1)" stroke-width="1.5"></path><path d="M-74.35 383.76L-92.06 498.34" stroke="rgba(19, 46, 101, 1)" stroke-width="1.5"></path><path d="M-74.35 383.76L71.8 406.68" stroke="rgba(19, 46, 101, 1)" stroke-width="1.5"></path><path d="M-74.35 383.76L38.25 560.07" stroke="rgba(19, 46, 101, 1)" stroke-width="1.5"></path><path d="M-74.35 383.76L197.73 381.14" stroke="rgba(19, 46, 101, 1)" stroke-width="1.5"></path><path d="M-74.35 383.76L188.3 516.25" stroke="rgba(19, 46, 101, 1)" stroke-width="1.5"></path><path d="M-74.35 383.76L-61.1 711.12" stroke="rgba(19, 46, 101, 1)" stroke-width="1.5"></path><path d="M-92.06 498.34L-92.06 498.34" stroke="rgba(19, 46, 101, 1)" stroke-width="1.5"></path><path d="M-92.06 498.34L38.25 560.07" stroke="rgba(19, 46, 101, 1)" stroke-width="1.5"></path><path d="M-92.06 498.34L71.8 406.68" stroke="rgba(19, 46, 101, 1)" stroke-width="1.5"></path><path d="M-92.06 498.34L-61.1 711.12" stroke="rgba(19, 46, 101, 1)" stroke-width="1.5"></path><path d="M-92.06 498.34L107.59 669.89" stroke="rgba(19, 46, 101, 1)" stroke-width="1.5"></path><path d="M-92.06 498.34L188.3 516.25" stroke="rgba(19, 46, 101, 1)" stroke-width="1.5"></path><path d="M-61.1 711.12L-61.1 711.12" stroke="rgba(19, 46, 101, 1)" stroke-width="1.5"></path><path d="M-61.1 711.12L107.59 669.89" stroke="rgba(19, 46, 101, 1)" stroke-width="1.5"></path><path d="M-61.1 711.12L38.25 560.07" stroke="rgba(19, 46, 101, 1)" stroke-width="1.5"></path><path d="M71.8 406.68L71.8 406.68" stroke="rgba(19, 46, 101, 1)" stroke-width="1.5"></path><path d="M71.8 406.68L197.73 381.14" stroke="rgba(19, 46, 101, 1)" stroke-width="1.5"></path><path d="M71.8 406.68L38.25 560.07" stroke="rgba(19, 46, 101, 1)" stroke-width="1.5"></path><path d="M71.8 406.68L188.3 516.25" stroke="rgba(19, 46, 101, 1)" stroke-width="1.5"></path><path d="M71.8 406.68L107.59 669.89" stroke="rgba(19, 46, 101, 1)" stroke-width="1.5"></path><path d="M38.25 560.07L38.25 560.07" stroke="rgba(19, 46, 101, 1)" stroke-width="1.5"></path><path d="M38.25 560.07L107.59 669.89" stroke="rgba(19, 46, 101, 1)" stroke-width="1.5"></path><path d="M38.25 560.07L188.3 516.25" stroke="rgba(19, 46, 101, 1)" stroke-width="1.5"></path><path d="M107.59 669.89L107.59 669.89" stroke="rgba(19, 46, 101, 1)" stroke-width="1.5"></path><path d="M107.59 669.89L221.21 701.42" stroke="rgba(19, 46, 101, 1)" stroke-width="1.5"></path><path d="M107.59 669.89L188.3 516.25" stroke="rgba(19, 46, 101, 1)" stroke-width="1.5"></path><path d="M107.59 669.89L345.6 667.44" stroke="rgba(19, 46, 101, 1)" stroke-width="1.5"></path><path d="M197.73 381.14L197.73 381.14" stroke="rgba(19, 46, 101, 1)" stroke-width="1.5"></path><path d="M197.73 381.14L188.3 516.25" stroke="rgba(19, 46, 101, 1)" stroke-width="1.5"></path><path d="M197.73 381.14L365.22 358.68" stroke="rgba(19, 46, 101, 1)" stroke-width="1.5"></path><path d="M197.73 381.14L341.11 524.13" stroke="rgba(19, 46, 101, 1)" stroke-width="1.5"></path><path d="M188.3 516.25L188.3 516.25" stroke="rgba(19, 46, 101, 1)" stroke-width="1.5"></path><path d="M188.3 516.25L341.11 524.13" stroke="rgba(19, 46, 101, 1)" stroke-width="1.5"></path><path d="M221.21 701.42L221.21 701.42" stroke="rgba(19, 46, 101, 1)" stroke-width="1.5"></path><path d="M221.21 701.42L345.6 667.44" stroke="rgba(19, 46, 101, 1)" stroke-width="1.5"></path><path d="M221.21 701.42L188.3 516.25" stroke="rgba(19, 46, 101, 1)" stroke-width="1.5"></path><path d="M221.21 701.42L341.11 524.13" stroke="rgba(19, 46, 101, 1)" stroke-width="1.5"></path><path d="M221.21 701.42L38.25 560.07" stroke="rgba(19, 46, 101, 1)" stroke-width="1.5"></path><path d="M221.21 701.42L-61.1 711.12" stroke="rgba(19, 46, 101, 1)" stroke-width="1.5"></path><path d="M365.22 358.68L365.22 358.68" stroke="rgba(19, 46, 101, 1)" stroke-width="1.5"></path><path d="M365.22 358.68L500.72 356.28" stroke="rgba(19, 46, 101, 1)" stroke-width="1.5"></path><path d="M365.22 358.68L341.11 524.13" stroke="rgba(19, 46, 101, 1)" stroke-width="1.5"></path><path d="M365.22 358.68L188.3 516.25" stroke="rgba(19, 46, 101, 1)" stroke-width="1.5"></path><path d="M341.11 524.13L341.11 524.13" stroke="rgba(19, 46, 101, 1)" stroke-width="1.5"></path><path d="M341.11 524.13L345.6 667.44" stroke="rgba(19, 46, 101, 1)" stroke-width="1.5"></path><path d="M345.6 667.44L345.6 667.44" stroke="rgba(19, 46, 101, 1)" stroke-width="1.5"></path><path d="M345.6 667.44L537.33 646.27" stroke="rgba(19, 46, 101, 1)" stroke-width="1.5"></path><path d="M345.6 667.44L188.3 516.25" stroke="rgba(19, 46, 101, 1)" stroke-width="1.5"></path><path d="M500.72 356.28L500.72 356.28" stroke="rgba(19, 46, 101, 1)" stroke-width="1.5"></path><path d="M500.72 356.28L670.52 382.25" stroke="rgba(19, 46, 101, 1)" stroke-width="1.5"></path><path d="M551.97 535.3L551.97 535.3" stroke="rgba(19, 46, 101, 1)" stroke-width="1.5"></path><path d="M551.97 535.3L642.06 530.97" stroke="rgba(19, 46, 101, 1)" stroke-width="1.5"></path><path d="M551.97 535.3L537.33 646.27" stroke="rgba(19, 46, 101, 1)" stroke-width="1.5"></path><path d="M551.97 535.3L500.72 356.28" stroke="rgba(19, 46, 101, 1)" stroke-width="1.5"></path><path d="M537.33 646.27L537.33 646.27" stroke="rgba(19, 46, 101, 1)" stroke-width="1.5"></path><path d="M537.33 646.27L675.67 675.59" stroke="rgba(19, 46, 101, 1)" stroke-width="1.5"></path><path d="M537.33 646.27L642.06 530.97" stroke="rgba(19, 46, 101, 1)" stroke-width="1.5"></path><path d="M670.52 382.25L670.52 382.25" stroke="rgba(19, 46, 101, 1)" stroke-width="1.5"></path><path d="M670.52 382.25L642.06 530.97" stroke="rgba(19, 46, 101, 1)" stroke-width="1.5"></path><path d="M670.52 382.25L845.2 367.17" stroke="rgba(19, 46, 101, 1)" stroke-width="1.5"></path><path d="M670.52 382.25L551.97 535.3" stroke="rgba(19, 46, 101, 1)" stroke-width="1.5"></path><path d="M670.52 382.25L813.42 557.28" stroke="rgba(19, 46, 101, 1)" stroke-width="1.5"></path><path d="M670.52 382.25L675.67 675.59" stroke="rgba(19, 46, 101, 1)" stroke-width="1.5"></path><path d="M642.06 530.97L642.06 530.97" stroke="rgba(19, 46, 101, 1)" stroke-width="1.5"></path><path d="M642.06 530.97L675.67 675.59" stroke="rgba(19, 46, 101, 1)" stroke-width="1.5"></path><path d="M675.67 675.59L675.67 675.59" stroke="rgba(19, 46, 101, 1)" stroke-width="1.5"></path><path d="M675.67 675.59L809.05 671.72" stroke="rgba(19, 46, 101, 1)" stroke-width="1.5"></path><path d="M836.34 100.16L836.34 100.16" stroke="rgba(19, 46, 101, 1)" stroke-width="1.5"></path><path d="M836.34 100.16L961.32 97.8" stroke="rgba(19, 46, 101, 1)" stroke-width="1.5"></path><path d="M836.34 100.16L979.03 218.04" stroke="rgba(19, 46, 101, 1)" stroke-width="1.5"></path><path d="M845.2 367.17L845.2 367.17" stroke="rgba(19, 46, 101, 1)" stroke-width="1.5"></path><path d="M845.2 367.17L980.92 402.23" stroke="rgba(19, 46, 101, 1)" stroke-width="1.5"></path><path d="M813.42 557.28L813.42 557.28" stroke="rgba(19, 46, 101, 1)" stroke-width="1.5"></path><path d="M813.42 557.28L809.05 671.72" stroke="rgba(19, 46, 101, 1)" stroke-width="1.5"></path><path d="M809.05 671.72L809.05 671.72" stroke="rgba(19, 46, 101, 1)" stroke-width="1.5"></path><path d="M809.05 671.72L946.22 711.89" stroke="rgba(19, 46, 101, 1)" stroke-width="1.5"></path><path d="M809.05 671.72L642.06 530.97" stroke="rgba(19, 46, 101, 1)" stroke-width="1.5"></path><path d="M809.05 671.72L537.33 646.27" stroke="rgba(19, 46, 101, 1)" stroke-width="1.5"></path><path d="M809.05 671.72L1096.24 663.35" stroke="rgba(19, 46, 101, 1)" stroke-width="1.5"></path><path d="M981.5 -48.9L981.5 -48.9" stroke="rgba(19, 46, 101, 1)" stroke-width="1.5"></path><path d="M981.5 -48.9L961.32 97.8" stroke="rgba(19, 46, 101, 1)" stroke-width="1.5"></path><path d="M981.5 -48.9L1095.52 71.39" stroke="rgba(19, 46, 101, 1)" stroke-width="1.5"></path><path d="M981.5 -48.9L1155.43 -76.32" stroke="rgba(19, 46, 101, 1)" stroke-width="1.5"></path><path d="M981.5 -48.9L836.34 100.16" stroke="rgba(19, 46, 101, 1)" stroke-width="1.5"></path><path d="M981.5 -48.9L979.03 218.04" stroke="rgba(19, 46, 101, 1)" stroke-width="1.5"></path><path d="M961.32 97.8L961.32 97.8" stroke="rgba(19, 46, 101, 1)" stroke-width="1.5"></path><path d="M961.32 97.8L979.03 218.04" stroke="rgba(19, 46, 101, 1)" stroke-width="1.5"></path><path d="M961.32 97.8L1095.52 71.39" stroke="rgba(19, 46, 101, 1)" stroke-width="1.5"></path><path d="M979.03 218.04L979.03 218.04" stroke="rgba(19, 46, 101, 1)" stroke-width="1.5"></path><path d="M979.03 218.04L1088.79 206.48" stroke="rgba(19, 46, 101, 1)" stroke-width="1.5"></path><path d="M979.03 218.04L980.92 402.23" stroke="rgba(19, 46, 101, 1)" stroke-width="1.5"></path><path d="M980.92 402.23L980.92 402.23" stroke="rgba(19, 46, 101, 1)" stroke-width="1.5"></path><path d="M980.92 402.23L1099.12 402.38" stroke="rgba(19, 46, 101, 1)" stroke-width="1.5"></path><path d="M980.92 402.23L1103.73 513.85" stroke="rgba(19, 46, 101, 1)" stroke-width="1.5"></path><path d="M946.22 711.89L946.22 711.89" stroke="rgba(19, 46, 101, 1)" stroke-width="1.5"></path><path d="M946.22 711.89L1096.24 663.35" stroke="rgba(19, 46, 101, 1)" stroke-width="1.5"></path><path d="M946.22 711.89L813.42 557.28" stroke="rgba(19, 46, 101, 1)" stroke-width="1.5"></path><path d="M1155.43 -76.32L1155.43 -76.32" stroke="rgba(19, 46, 101, 1)" stroke-width="1.5"></path><path d="M1155.43 -76.32L1305.87 -69.94" stroke="rgba(19, 46, 101, 1)" stroke-width="1.5"></path><path d="M1155.43 -76.32L1095.52 71.39" stroke="rgba(19, 46, 101, 1)" stroke-width="1.5"></path><path d="M1155.43 -76.32L1286.26 79.73" stroke="rgba(19, 46, 101, 1)" stroke-width="1.5"></path><path d="M1155.43 -76.32L961.32 97.8" stroke="rgba(19, 46, 101, 1)" stroke-width="1.5"></path><path d="M1155.43 -76.32L1443.97 -81.04" stroke="rgba(19, 46, 101, 1)" stroke-width="1.5"></path><path d="M1095.52 71.39L1095.52 71.39" stroke="rgba(19, 46, 101, 1)" stroke-width="1.5"></path><path d="M1095.52 71.39L1088.79 206.48" stroke="rgba(19, 46, 101, 1)" stroke-width="1.5"></path><path d="M1088.79 206.48L1088.79 206.48" stroke="rgba(19, 46, 101, 1)" stroke-width="1.5"></path><path d="M1088.79 206.48L961.32 97.8" stroke="rgba(19, 46, 101, 1)" stroke-width="1.5"></path><path d="M1088.79 206.48L1260.86 233.42" stroke="rgba(19, 46, 101, 1)" stroke-width="1.5"></path><path d="M1099.12 402.38L1099.12 402.38" stroke="rgba(19, 46, 101, 1)" stroke-width="1.5"></path><path d="M1099.12 402.38L1103.73 513.85" stroke="rgba(19, 46, 101, 1)" stroke-width="1.5"></path><path d="M1099.12 402.38L1088.79 206.48" stroke="rgba(19, 46, 101, 1)" stroke-width="1.5"></path><path d="M1099.12 402.38L1298.99 338.49" stroke="rgba(19, 46, 101, 1)" stroke-width="1.5"></path><path d="M1103.73 513.85L1103.73 513.85" stroke="rgba(19, 46, 101, 1)" stroke-width="1.5"></path><path d="M1103.73 513.85L1096.24 663.35" stroke="rgba(19, 46, 101, 1)" stroke-width="1.5"></path><path d="M1096.24 663.35L1096.24 663.35" stroke="rgba(19, 46, 101, 1)" stroke-width="1.5"></path><path d="M1096.24 663.35L1286.47 650.19" stroke="rgba(19, 46, 101, 1)" stroke-width="1.5"></path><path d="M1096.24 663.35L1099.12 402.38" stroke="rgba(19, 46, 101, 1)" stroke-width="1.5"></path><path d="M1305.87 -69.94L1305.87 -69.94" stroke="rgba(19, 46, 101, 1)" stroke-width="1.5"></path><path d="M1305.87 -69.94L1443.97 -81.04" stroke="rgba(19, 46, 101, 1)" stroke-width="1.5"></path><path d="M1286.26 79.73L1286.26 79.73" stroke="rgba(19, 46, 101, 1)" stroke-width="1.5"></path><path d="M1286.26 79.73L1305.87 -69.94" stroke="rgba(19, 46, 101, 1)" stroke-width="1.5"></path><path d="M1286.26 79.73L1260.86 233.42" stroke="rgba(19, 46, 101, 1)" stroke-width="1.5"></path><path d="M1286.26 79.73L1445.34 89.21" stroke="rgba(19, 46, 101, 1)" stroke-width="1.5"></path><path d="M1286.26 79.73L1095.52 71.39" stroke="rgba(19, 46, 101, 1)" stroke-width="1.5"></path><path d="M1260.86 233.42L1260.86 233.42" stroke="rgba(19, 46, 101, 1)" stroke-width="1.5"></path><path d="M1260.86 233.42L1298.99 338.49" stroke="rgba(19, 46, 101, 1)" stroke-width="1.5"></path><path d="M1260.86 233.42L1419.84 242.38" stroke="rgba(19, 46, 101, 1)" stroke-width="1.5"></path><path d="M1298.99 338.49L1298.99 338.49" stroke="rgba(19, 46, 101, 1)" stroke-width="1.5"></path><path d="M1298.99 338.49L1419.84 242.38" stroke="rgba(19, 46, 101, 1)" stroke-width="1.5"></path><path d="M1286.47 650.19L1286.47 650.19" stroke="rgba(19, 46, 101, 1)" stroke-width="1.5"></path><path d="M1286.47 650.19L1410.17 542" stroke="rgba(19, 46, 101, 1)" stroke-width="1.5"></path><path d="M1286.47 650.19L1456 661.84" stroke="rgba(19, 46, 101, 1)" stroke-width="1.5"></path><path d="M1286.47 650.19L1103.73 513.85" stroke="rgba(19, 46, 101, 1)" stroke-width="1.5"></path><path d="M1443.97 -81.04L1443.97 -81.04" stroke="rgba(19, 46, 101, 1)" stroke-width="1.5"></path><path d="M1443.97 -81.04L1445.34 89.21" stroke="rgba(19, 46, 101, 1)" stroke-width="1.5"></path><path d="M1443.97 -81.04L1563.01 62.68" stroke="rgba(19, 46, 101, 1)" stroke-width="1.5"></path><path d="M1445.34 89.21L1445.34 89.21" stroke="rgba(19, 46, 101, 1)" stroke-width="1.5"></path><path d="M1445.34 89.21L1563.01 62.68" stroke="rgba(19, 46, 101, 1)" stroke-width="1.5"></path><path d="M1445.34 89.21L1419.84 242.38" stroke="rgba(19, 46, 101, 1)" stroke-width="1.5"></path><path d="M1445.34 89.21L1542.85 223.85" stroke="rgba(19, 46, 101, 1)" stroke-width="1.5"></path><path d="M1445.34 89.21L1305.87 -69.94" stroke="rgba(19, 46, 101, 1)" stroke-width="1.5"></path><path d="M1419.84 242.38L1419.84 242.38" stroke="rgba(19, 46, 101, 1)" stroke-width="1.5"></path><path d="M1419.84 242.38L1542.85 223.85" stroke="rgba(19, 46, 101, 1)" stroke-width="1.5"></path><path d="M1460.63 408.03L1460.63 408.03" stroke="rgba(19, 46, 101, 1)" stroke-width="1.5"></path><path d="M1460.63 408.03L1564.51 398.66" stroke="rgba(19, 46, 101, 1)" stroke-width="1.5"></path><path d="M1460.63 408.03L1410.17 542" stroke="rgba(19, 46, 101, 1)" stroke-width="1.5"></path><path d="M1410.17 542L1410.17 542" stroke="rgba(19, 46, 101, 1)" stroke-width="1.5"></path><path d="M1410.17 542L1456 661.84" stroke="rgba(19, 46, 101, 1)" stroke-width="1.5"></path><path d="M1410.17 542L1564.41 649.57" stroke="rgba(19, 46, 101, 1)" stroke-width="1.5"></path><path d="M1456 661.84L1456 661.84" stroke="rgba(19, 46, 101, 1)" stroke-width="1.5"></path><path d="M1456 661.84L1564.41 649.57" stroke="rgba(19, 46, 101, 1)" stroke-width="1.5"></path><path d="M1456 661.84L1611.63 500.97" stroke="rgba(19, 46, 101, 1)" stroke-width="1.5"></path><path d="M1456 661.84L1460.63 408.03" stroke="rgba(19, 46, 101, 1)" stroke-width="1.5"></path><path d="M1563.01 62.68L1563.01 62.68" stroke="rgba(19, 46, 101, 1)" stroke-width="1.5"></path><path d="M1563.01 62.68L1542.85 223.85" stroke="rgba(19, 46, 101, 1)" stroke-width="1.5"></path><path d="M1563.01 62.68L1419.84 242.38" stroke="rgba(19, 46, 101, 1)" stroke-width="1.5"></path><path d="M1563.01 62.68L1286.26 79.73" stroke="rgba(19, 46, 101, 1)" stroke-width="1.5"></path><path d="M1542.85 223.85L1542.85 223.85" stroke="rgba(19, 46, 101, 1)" stroke-width="1.5"></path><path d="M1564.51 398.66L1564.51 398.66" stroke="rgba(19, 46, 101, 1)" stroke-width="1.5"></path><path d="M1564.51 398.66L1611.63 500.97" stroke="rgba(19, 46, 101, 1)" stroke-width="1.5"></path><path d="M1564.51 398.66L1542.85 223.85" stroke="rgba(19, 46, 101, 1)" stroke-width="1.5"></path><path d="M1564.51 398.66L1410.17 542" stroke="rgba(19, 46, 101, 1)" stroke-width="1.5"></path><path d="M1611.63 500.97L1611.63 500.97" stroke="rgba(19, 46, 101, 1)" stroke-width="1.5"></path><path d="M1611.63 500.97L1564.41 649.57" stroke="rgba(19, 46, 101, 1)" stroke-width="1.5"></path><path d="M1611.63 500.97L1460.63 408.03" stroke="rgba(19, 46, 101, 1)" stroke-width="1.5"></path><path d="M1611.63 500.97L1410.17 542" stroke="rgba(19, 46, 101, 1)" stroke-width="1.5"></path><path d="M1564.41 649.57L1564.41 649.57" stroke="rgba(19, 46, 101, 1)" stroke-width="1.5"></path><circle r="5" cx="-74.35" cy="383.76" fill="rgba(19, 46, 101, 1)"></circle><circle r="5" cx="-92.06" cy="498.34" fill="rgba(19, 46, 101, 1)"></circle><circle r="5" cx="-61.1" cy="711.12" fill="rgba(19, 46, 101, 1)"></circle><circle r="5" cx="71.8" cy="406.68" fill="rgba(19, 46, 101, 1)"></circle><circle r="5" cx="38.25" cy="560.07" fill="rgba(19, 46, 101, 1)"></circle><circle r="5" cx="107.59" cy="669.89" fill="rgba(19, 46, 101, 1)"></circle><circle r="5" cx="197.73" cy="381.14" fill="rgba(19, 46, 101, 1)"></circle><circle r="5" cx="188.3" cy="516.25" fill="rgba(19, 46, 101, 1)"></circle><circle r="5" cx="221.21" cy="701.42" fill="rgba(19, 46, 101, 1)"></circle><circle r="5" cx="365.22" cy="358.68" fill="rgba(19, 46, 101, 1)"></circle><circle r="5" cx="341.11" cy="524.13" fill="rgba(19, 46, 101, 1)"></circle><circle r="5" cx="345.6" cy="667.44" fill="rgba(19, 46, 101, 1)"></circle><circle r="5" cx="500.72" cy="356.28" fill="rgba(19, 46, 101, 1)"></circle><circle r="5" cx="551.97" cy="535.3" fill="rgba(19, 46, 101, 1)"></circle><circle r="5" cx="537.33" cy="646.27" fill="rgba(19, 46, 101, 1)"></circle><circle r="5" cx="670.52" cy="382.25" fill="rgba(19, 46, 101, 1)"></circle><circle r="5" cx="642.06" cy="530.97" fill="rgba(19, 46, 101, 1)"></circle><circle r="5" cx="675.67" cy="675.59" fill="rgba(19, 46, 101, 1)"></circle><circle r="5" cx="836.34" cy="100.16" fill="rgba(19, 46, 101, 1)"></circle><circle r="5" cx="845.2" cy="367.17" fill="rgba(19, 46, 101, 1)"></circle><circle r="5" cx="813.42" cy="557.28" fill="rgba(19, 46, 101, 1)"></circle><circle r="5" cx="809.05" cy="671.72" fill="rgba(19, 46, 101, 1)"></circle><circle r="5" cx="981.5" cy="-48.9" fill="rgba(19, 46, 101, 1)"></circle><circle r="5" cx="961.32" cy="97.8" fill="rgba(19, 46, 101, 1)"></circle><circle r="5" cx="979.03" cy="218.04" fill="rgba(19, 46, 101, 1)"></circle><circle r="5" cx="980.92" cy="402.23" fill="rgba(19, 46, 101, 1)"></circle><circle r="5" cx="946.22" cy="711.89" fill="rgba(19, 46, 101, 1)"></circle><circle r="5" cx="1155.43" cy="-76.32" fill="rgba(19, 46, 101, 1)"></circle><circle r="5" cx="1095.52" cy="71.39" fill="rgba(19, 46, 101, 1)"></circle><circle r="5" cx="1088.79" cy="206.48" fill="rgba(19, 46, 101, 1)"></circle><circle r="5" cx="1099.12" cy="402.38" fill="rgba(19, 46, 101, 1)"></circle><circle r="5" cx="1103.73" cy="513.85" fill="rgba(19, 46, 101, 1)"></circle><circle r="5" cx="1096.24" cy="663.35" fill="rgba(19, 46, 101, 1)"></circle><circle r="5" cx="1305.87" cy="-69.94" fill="rgba(19, 46, 101, 1)"></circle><circle r="5" cx="1286.26" cy="79.73" fill="rgba(19, 46, 101, 1)"></circle><circle r="5" cx="1260.86" cy="233.42" fill="rgba(19, 46, 101, 1)"></circle><circle r="5" cx="1298.99" cy="338.49" fill="rgba(19, 46, 101, 1)"></circle><circle r="5" cx="1286.47" cy="650.19" fill="rgba(19, 46, 101, 1)"></circle><circle r="5" cx="1443.97" cy="-81.04" fill="rgba(19, 46, 101, 1)"></circle><circle r="5" cx="1445.34" cy="89.21" fill="rgba(19, 46, 101, 1)"></circle><circle r="5" cx="1419.84" cy="242.38" fill="rgba(19, 46, 101, 1)"></circle><circle r="5" cx="1460.63" cy="408.03" fill="rgba(19, 46, 101, 1)"></circle><circle r="5" cx="1410.17" cy="542" fill="rgba(19, 46, 101, 1)"></circle><circle r="5" cx="1456" cy="661.84" fill="rgba(19, 46, 101, 1)"></circle><circle r="5" cx="1563.01" cy="62.68" fill="rgba(19, 46, 101, 1)"></circle><circle r="5" cx="1542.85" cy="223.85" fill="rgba(19, 46, 101, 1)"></circle><circle r="5" cx="1564.51" cy="398.66" fill="rgba(19, 46, 101, 1)"></circle><circle r="5" cx="1611.63" cy="500.97" fill="rgba(19, 46, 101, 1)"></circle><circle r="5" cx="1564.41" cy="649.57" fill="rgba(19, 46, 101, 1)"></circle><path d="M-107.87 515.06L-107.87 515.06" stroke="hsl(228.5, 77.2%, 51.5%)" stroke-width="1.5"></path><path d="M-107.87 515.06L38.31 550.34" stroke="hsl(228.5, 77.2%, 51.5%)" stroke-width="1.5"></path><path d="M-107.87 515.06L-79.7 693.79" stroke="hsl(228.5, 77.2%, 51.5%)" stroke-width="1.5"></path><path d="M-107.87 515.06L56.84 670.14" stroke="hsl(228.5, 77.2%, 51.5%)" stroke-width="1.5"></path><path d="M-107.87 515.06L255.56 547.06" stroke="hsl(228.5, 77.2%, 51.5%)" stroke-width="1.5"></path><path d="M855.01 548.84L855.01 548.84" stroke="hsl(228.5, 77.2%, 51.5%)" stroke-width="1.5"></path><path d="M855.01 548.84L851.3 661.06" stroke="hsl(228.5, 77.2%, 51.5%)" stroke-width="1.5"></path><path d="M855.01 548.84L972.31 504.19" stroke="hsl(228.5, 77.2%, 51.5%)" stroke-width="1.5"></path><path d="M855.01 548.84L859.96 380.65" stroke="hsl(228.5, 77.2%, 51.5%)" stroke-width="1.5"></path><path d="M855.01 548.84L696.01 490.01" stroke="hsl(228.5, 77.2%, 51.5%)" stroke-width="1.5"></path><path d="M973.43 380.7L973.43 380.7" stroke="hsl(228.5, 77.2%, 51.5%)" stroke-width="1.5"></path><path d="M973.43 380.7L859.96 380.65" stroke="hsl(228.5, 77.2%, 51.5%)" stroke-width="1.5"></path><path d="M973.43 380.7L972.31 504.19" stroke="hsl(228.5, 77.2%, 51.5%)" stroke-width="1.5"></path><path d="M973.43 380.7L1114.11 381.81" stroke="hsl(228.5, 77.2%, 51.5%)" stroke-width="1.5"></path><path d="M973.43 380.7L855.01 548.84" stroke="hsl(228.5, 77.2%, 51.5%)" stroke-width="1.5"></path><path d="M973.43 380.7L1140.6 252.61" stroke="hsl(228.5, 77.2%, 51.5%)" stroke-width="1.5"></path><path d="M972.31 504.19L972.31 504.19" stroke="hsl(228.5, 77.2%, 51.5%)" stroke-width="1.5"></path><path d="M972.31 504.19L1120.51 532.02" stroke="hsl(228.5, 77.2%, 51.5%)" stroke-width="1.5"></path><path d="M972.31 504.19L859.96 380.65" stroke="hsl(228.5, 77.2%, 51.5%)" stroke-width="1.5"></path><path d="M972.31 504.19L1002.83 683.72" stroke="hsl(228.5, 77.2%, 51.5%)" stroke-width="1.5"></path><path d="M972.31 504.19L1114.11 381.81" stroke="hsl(228.5, 77.2%, 51.5%)" stroke-width="1.5"></path><path d="M1002.83 683.72L1002.83 683.72" stroke="hsl(228.5, 77.2%, 51.5%)" stroke-width="1.5"></path><path d="M1002.83 683.72L1108.25 675.81" stroke="hsl(228.5, 77.2%, 51.5%)" stroke-width="1.5"></path><path d="M1002.83 683.72L851.3 661.06" stroke="hsl(228.5, 77.2%, 51.5%)" stroke-width="1.5"></path><path d="M1002.83 683.72L1120.51 532.02" stroke="hsl(228.5, 77.2%, 51.5%)" stroke-width="1.5"></path><path d="M1002.83 683.72L855.01 548.84" stroke="hsl(228.5, 77.2%, 51.5%)" stroke-width="1.5"></path><path d="M1114.11 381.81L1114.11 381.81" stroke="hsl(228.5, 77.2%, 51.5%)" stroke-width="1.5"></path><path d="M1114.11 381.81L1140.6 252.61" stroke="hsl(228.5, 77.2%, 51.5%)" stroke-width="1.5"></path><path d="M1114.11 381.81L1120.51 532.02" stroke="hsl(228.5, 77.2%, 51.5%)" stroke-width="1.5"></path><path d="M1120.51 532.02L1120.51 532.02" stroke="hsl(228.5, 77.2%, 51.5%)" stroke-width="1.5"></path><path d="M1120.51 532.02L1260.59 550.25" stroke="hsl(228.5, 77.2%, 51.5%)" stroke-width="1.5"></path><path d="M1120.51 532.02L1108.25 675.81" stroke="hsl(228.5, 77.2%, 51.5%)" stroke-width="1.5"></path><path d="M1249.29 231.93L1249.29 231.93" stroke="hsl(228.5, 77.2%, 51.5%)" stroke-width="1.5"></path><path d="M1249.29 231.93L1140.6 252.61" stroke="hsl(228.5, 77.2%, 51.5%)" stroke-width="1.5"></path><path d="M1249.29 231.93L1303.54 352.99" stroke="hsl(228.5, 77.2%, 51.5%)" stroke-width="1.5"></path><path d="M1249.29 231.93L1414.61 241.61" stroke="hsl(228.5, 77.2%, 51.5%)" stroke-width="1.5"></path><path d="M1303.54 352.99L1303.54 352.99" stroke="hsl(228.5, 77.2%, 51.5%)" stroke-width="1.5"></path><path d="M1303.54 352.99L1453.07 381.04" stroke="hsl(228.5, 77.2%, 51.5%)" stroke-width="1.5"></path><path d="M1303.54 352.99L1414.61 241.61" stroke="hsl(228.5, 77.2%, 51.5%)" stroke-width="1.5"></path><path d="M1303.54 352.99L1140.6 252.61" stroke="hsl(228.5, 77.2%, 51.5%)" stroke-width="1.5"></path><path d="M1303.54 352.99L1114.11 381.81" stroke="hsl(228.5, 77.2%, 51.5%)" stroke-width="1.5"></path><path d="M1303.54 352.99L1260.59 550.25" stroke="hsl(228.5, 77.2%, 51.5%)" stroke-width="1.5"></path><path d="M1414.61 241.61L1414.61 241.61" stroke="hsl(228.5, 77.2%, 51.5%)" stroke-width="1.5"></path><path d="M1414.61 241.61L1543.34 249.84" stroke="hsl(228.5, 77.2%, 51.5%)" stroke-width="1.5"></path><path d="M1414.61 241.61L1453.07 381.04" stroke="hsl(228.5, 77.2%, 51.5%)" stroke-width="1.5"></path><path d="M1571.34 -52.09L1571.34 -52.09" stroke="hsl(228.5, 77.2%, 51.5%)" stroke-width="1.5"></path><path d="M1571.34 -52.09L1450.65 41.02" stroke="hsl(228.5, 77.2%, 51.5%)" stroke-width="1.5"></path><path d="M1571.34 -52.09L1556.63 106.61" stroke="hsl(228.5, 77.2%, 51.5%)" stroke-width="1.5"></path><path d="M1571.34 -52.09L1402.15 -42.45" stroke="hsl(228.5, 77.2%, 51.5%)" stroke-width="1.5"></path><path d="M1571.34 -52.09L1293.17 -38.08" stroke="hsl(228.5, 77.2%, 51.5%)" stroke-width="1.5"></path><path d="M1571.34 -52.09L1300.35 51.85" stroke="hsl(228.5, 77.2%, 51.5%)" stroke-width="1.5"></path><path d="M1571.34 -52.09L1543.34 249.84" stroke="hsl(228.5, 77.2%, 51.5%)" stroke-width="1.5"></path><path d="M1543.34 249.84L1543.34 249.84" stroke="hsl(228.5, 77.2%, 51.5%)" stroke-width="1.5"></path><path d="M1543.34 249.84L1559.99 365.8" stroke="hsl(228.5, 77.2%, 51.5%)" stroke-width="1.5"></path><path d="M1543.34 249.84L1556.63 106.61" stroke="hsl(228.5, 77.2%, 51.5%)" stroke-width="1.5"></path><path d="M1543.34 249.84L1453.07 381.04" stroke="hsl(228.5, 77.2%, 51.5%)" stroke-width="1.5"></path><path d="M-79.7 693.79L-79.7 693.79" stroke="hsl(228.5, 77.2%, 51.5%)" stroke-width="1.5"></path><path d="M-79.7 693.79L56.84 670.14" stroke="hsl(228.5, 77.2%, 51.5%)" stroke-width="1.5"></path><path d="M-79.7 693.79L38.31 550.34" stroke="hsl(228.5, 77.2%, 51.5%)" stroke-width="1.5"></path><path d="M38.31 550.34L38.31 550.34" stroke="hsl(228.5, 77.2%, 51.5%)" stroke-width="1.5"></path><path d="M38.31 550.34L56.84 670.14" stroke="hsl(228.5, 77.2%, 51.5%)" stroke-width="1.5"></path><path d="M38.31 550.34L255.56 547.06" stroke="hsl(228.5, 77.2%, 51.5%)" stroke-width="1.5"></path><path d="M38.31 550.34L246.66 680.73" stroke="hsl(228.5, 77.2%, 51.5%)" stroke-width="1.5"></path><path d="M56.84 670.14L56.84 670.14" stroke="hsl(228.5, 77.2%, 51.5%)" stroke-width="1.5"></path><path d="M56.84 670.14L246.66 680.73" stroke="hsl(228.5, 77.2%, 51.5%)" stroke-width="1.5"></path><path d="M56.84 670.14L255.56 547.06" stroke="hsl(228.5, 77.2%, 51.5%)" stroke-width="1.5"></path><path d="M56.84 670.14L338.3 554.36" stroke="hsl(228.5, 77.2%, 51.5%)" stroke-width="1.5"></path><path d="M255.56 547.06L255.56 547.06" stroke="hsl(228.5, 77.2%, 51.5%)" stroke-width="1.5"></path><path d="M255.56 547.06L338.3 554.36" stroke="hsl(228.5, 77.2%, 51.5%)" stroke-width="1.5"></path><path d="M255.56 547.06L246.66 680.73" stroke="hsl(228.5, 77.2%, 51.5%)" stroke-width="1.5"></path><path d="M255.56 547.06L402.8 671.33" stroke="hsl(228.5, 77.2%, 51.5%)" stroke-width="1.5"></path><path d="M246.66 680.73L246.66 680.73" stroke="hsl(228.5, 77.2%, 51.5%)" stroke-width="1.5"></path><path d="M246.66 680.73L338.3 554.36" stroke="hsl(228.5, 77.2%, 51.5%)" stroke-width="1.5"></path><path d="M246.66 680.73L402.8 671.33" stroke="hsl(228.5, 77.2%, 51.5%)" stroke-width="1.5"></path><path d="M338.3 554.36L338.3 554.36" stroke="hsl(228.5, 77.2%, 51.5%)" stroke-width="1.5"></path><path d="M338.3 554.36L402.8 671.33" stroke="hsl(228.5, 77.2%, 51.5%)" stroke-width="1.5"></path><path d="M338.3 554.36L495.03 667.16" stroke="hsl(228.5, 77.2%, 51.5%)" stroke-width="1.5"></path><path d="M338.3 554.36L557.78 530.62" stroke="hsl(228.5, 77.2%, 51.5%)" stroke-width="1.5"></path><path d="M402.8 671.33L402.8 671.33" stroke="hsl(228.5, 77.2%, 51.5%)" stroke-width="1.5"></path><path d="M402.8 671.33L495.03 667.16" stroke="hsl(228.5, 77.2%, 51.5%)" stroke-width="1.5"></path><path d="M557.78 530.62L557.78 530.62" stroke="hsl(228.5, 77.2%, 51.5%)" stroke-width="1.5"></path><path d="M557.78 530.62L696.01 490.01" stroke="hsl(228.5, 77.2%, 51.5%)" stroke-width="1.5"></path><path d="M557.78 530.62L495.03 667.16" stroke="hsl(228.5, 77.2%, 51.5%)" stroke-width="1.5"></path><path d="M557.78 530.62L664.86 658.99" stroke="hsl(228.5, 77.2%, 51.5%)" stroke-width="1.5"></path><path d="M557.78 530.62L402.8 671.33" stroke="hsl(228.5, 77.2%, 51.5%)" stroke-width="1.5"></path><path d="M495.03 667.16L495.03 667.16" stroke="hsl(228.5, 77.2%, 51.5%)" stroke-width="1.5"></path><path d="M495.03 667.16L664.86 658.99" stroke="hsl(228.5, 77.2%, 51.5%)" stroke-width="1.5"></path><path d="M495.03 667.16L246.66 680.73" stroke="hsl(228.5, 77.2%, 51.5%)" stroke-width="1.5"></path><path d="M699.83 358.64L699.83 358.64" stroke="hsl(228.5, 77.2%, 51.5%)" stroke-width="1.5"></path><path d="M699.83 358.64L696.01 490.01" stroke="hsl(228.5, 77.2%, 51.5%)" stroke-width="1.5"></path><path d="M696.01 490.01L696.01 490.01" stroke="hsl(228.5, 77.2%, 51.5%)" stroke-width="1.5"></path><path d="M664.86 658.99L664.86 658.99" stroke="hsl(228.5, 77.2%, 51.5%)" stroke-width="1.5"></path><path d="M859.96 380.65L859.96 380.65" stroke="hsl(228.5, 77.2%, 51.5%)" stroke-width="1.5"></path><path d="M859.96 380.65L699.83 358.64" stroke="hsl(228.5, 77.2%, 51.5%)" stroke-width="1.5"></path><path d="M851.3 661.06L851.3 661.06" stroke="hsl(228.5, 77.2%, 51.5%)" stroke-width="1.5"></path><path d="M851.3 661.06L664.86 658.99" stroke="hsl(228.5, 77.2%, 51.5%)" stroke-width="1.5"></path><path d="M851.3 661.06L972.31 504.19" stroke="hsl(228.5, 77.2%, 51.5%)" stroke-width="1.5"></path><path d="M1138.54 89.97L1138.54 89.97" stroke="hsl(228.5, 77.2%, 51.5%)" stroke-width="1.5"></path><path d="M1138.54 89.97L1140.6 252.61" stroke="hsl(228.5, 77.2%, 51.5%)" stroke-width="1.5"></path><path d="M1138.54 89.97L1300.35 51.85" stroke="hsl(228.5, 77.2%, 51.5%)" stroke-width="1.5"></path><path d="M1138.54 89.97L1249.29 231.93" stroke="hsl(228.5, 77.2%, 51.5%)" stroke-width="1.5"></path><path d="M1138.54 89.97L1293.17 -38.08" stroke="hsl(228.5, 77.2%, 51.5%)" stroke-width="1.5"></path><path d="M1138.54 89.97L1114.11 381.81" stroke="hsl(228.5, 77.2%, 51.5%)" stroke-width="1.5"></path><path d="M1140.6 252.61L1140.6 252.61" stroke="hsl(228.5, 77.2%, 51.5%)" stroke-width="1.5"></path><path d="M1108.25 675.81L1108.25 675.81" stroke="hsl(228.5, 77.2%, 51.5%)" stroke-width="1.5"></path><path d="M1108.25 675.81L1250.87 649.46" stroke="hsl(228.5, 77.2%, 51.5%)" stroke-width="1.5"></path><path d="M1293.17 -38.08L1293.17 -38.08" stroke="hsl(228.5, 77.2%, 51.5%)" stroke-width="1.5"></path><path d="M1293.17 -38.08L1300.35 51.85" stroke="hsl(228.5, 77.2%, 51.5%)" stroke-width="1.5"></path><path d="M1293.17 -38.08L1402.15 -42.45" stroke="hsl(228.5, 77.2%, 51.5%)" stroke-width="1.5"></path><path d="M1293.17 -38.08L1450.65 41.02" stroke="hsl(228.5, 77.2%, 51.5%)" stroke-width="1.5"></path><path d="M1300.35 51.85L1300.35 51.85" stroke="hsl(228.5, 77.2%, 51.5%)" stroke-width="1.5"></path><path d="M1300.35 51.85L1402.15 -42.45" stroke="hsl(228.5, 77.2%, 51.5%)" stroke-width="1.5"></path><path d="M1300.35 51.85L1450.65 41.02" stroke="hsl(228.5, 77.2%, 51.5%)" stroke-width="1.5"></path><path d="M1260.59 550.25L1260.59 550.25" stroke="hsl(228.5, 77.2%, 51.5%)" stroke-width="1.5"></path><path d="M1260.59 550.25L1250.87 649.46" stroke="hsl(228.5, 77.2%, 51.5%)" stroke-width="1.5"></path><path d="M1260.59 550.25L1417.48 526.36" stroke="hsl(228.5, 77.2%, 51.5%)" stroke-width="1.5"></path><path d="M1260.59 550.25L1108.25 675.81" stroke="hsl(228.5, 77.2%, 51.5%)" stroke-width="1.5"></path><path d="M1260.59 550.25L1409.22 708.67" stroke="hsl(228.5, 77.2%, 51.5%)" stroke-width="1.5"></path><path d="M1250.87 649.46L1250.87 649.46" stroke="hsl(228.5, 77.2%, 51.5%)" stroke-width="1.5"></path><path d="M1250.87 649.46L1409.22 708.67" stroke="hsl(228.5, 77.2%, 51.5%)" stroke-width="1.5"></path><path d="M1250.87 649.46L1120.51 532.02" stroke="hsl(228.5, 77.2%, 51.5%)" stroke-width="1.5"></path><path d="M1402.15 -42.45L1402.15 -42.45" stroke="hsl(228.5, 77.2%, 51.5%)" stroke-width="1.5"></path><path d="M1402.15 -42.45L1450.65 41.02" stroke="hsl(228.5, 77.2%, 51.5%)" stroke-width="1.5"></path><path d="M1450.65 41.02L1450.65 41.02" stroke="hsl(228.5, 77.2%, 51.5%)" stroke-width="1.5"></path><path d="M1450.65 41.02L1556.63 106.61" stroke="hsl(228.5, 77.2%, 51.5%)" stroke-width="1.5"></path><path d="M1453.07 381.04L1453.07 381.04" stroke="hsl(228.5, 77.2%, 51.5%)" stroke-width="1.5"></path><path d="M1453.07 381.04L1559.99 365.8" stroke="hsl(228.5, 77.2%, 51.5%)" stroke-width="1.5"></path><path d="M1453.07 381.04L1417.48 526.36" stroke="hsl(228.5, 77.2%, 51.5%)" stroke-width="1.5"></path><path d="M1417.48 526.36L1417.48 526.36" stroke="hsl(228.5, 77.2%, 51.5%)" stroke-width="1.5"></path><path d="M1409.22 708.67L1409.22 708.67" stroke="hsl(228.5, 77.2%, 51.5%)" stroke-width="1.5"></path><path d="M1409.22 708.67L1417.48 526.36" stroke="hsl(228.5, 77.2%, 51.5%)" stroke-width="1.5"></path><path d="M1409.22 708.67L1587.12 660.28" stroke="hsl(228.5, 77.2%, 51.5%)" stroke-width="1.5"></path><path d="M1556.63 106.61L1556.63 106.61" stroke="hsl(228.5, 77.2%, 51.5%)" stroke-width="1.5"></path><path d="M1556.63 106.61L1414.61 241.61" stroke="hsl(228.5, 77.2%, 51.5%)" stroke-width="1.5"></path><path d="M1556.63 106.61L1402.15 -42.45" stroke="hsl(228.5, 77.2%, 51.5%)" stroke-width="1.5"></path><path d="M1556.63 106.61L1559.99 365.8" stroke="hsl(228.5, 77.2%, 51.5%)" stroke-width="1.5"></path><path d="M1559.99 365.8L1559.99 365.8" stroke="hsl(228.5, 77.2%, 51.5%)" stroke-width="1.5"></path><path d="M1559.99 365.8L1414.61 241.61" stroke="hsl(228.5, 77.2%, 51.5%)" stroke-width="1.5"></path><path d="M1559.99 365.8L1417.48 526.36" stroke="hsl(228.5, 77.2%, 51.5%)" stroke-width="1.5"></path><path d="M1559.99 365.8L1303.54 352.99" stroke="hsl(228.5, 77.2%, 51.5%)" stroke-width="1.5"></path><path d="M1587.12 660.28L1587.12 660.28" stroke="hsl(228.5, 77.2%, 51.5%)" stroke-width="1.5"></path><path d="M1587.12 660.28L1417.48 526.36" stroke="hsl(228.5, 77.2%, 51.5%)" stroke-width="1.5"></path><path d="M1587.12 660.28L1559.99 365.8" stroke="hsl(228.5, 77.2%, 51.5%)" stroke-width="1.5"></path><path d="M1587.12 660.28L1453.07 381.04" stroke="hsl(228.5, 77.2%, 51.5%)" stroke-width="1.5"></path><path d="M1587.12 660.28L1250.87 649.46" stroke="hsl(228.5, 77.2%, 51.5%)" stroke-width="1.5"></path><path d="M1587.12 660.28L1260.59 550.25" stroke="hsl(228.5, 77.2%, 51.5%)" stroke-width="1.5"></path><circle r="25" cx="-107.87" cy="515.06" fill="url(#SvgjsRadialGradient1007)"></circle><circle r="25" cx="855.01" cy="548.84" fill="url(#SvgjsRadialGradient1007)"></circle><circle r="25" cx="973.43" cy="380.7" fill="url(#SvgjsRadialGradient1007)"></circle><circle r="25" cx="972.31" cy="504.19" fill="url(#SvgjsRadialGradient1007)"></circle><circle r="25" cx="1002.83" cy="683.72" fill="url(#SvgjsRadialGradient1007)"></circle><circle r="25" cx="1114.11" cy="381.81" fill="url(#SvgjsRadialGradient1007)"></circle><circle r="25" cx="1120.51" cy="532.02" fill="url(#SvgjsRadialGradient1007)"></circle><circle r="25" cx="1249.29" cy="231.93" fill="url(#SvgjsRadialGradient1007)"></circle><circle r="25" cx="1303.54" cy="352.99" fill="url(#SvgjsRadialGradient1007)"></circle><circle r="25" cx="1414.61" cy="241.61" fill="url(#SvgjsRadialGradient1007)"></circle><circle r="25" cx="1571.34" cy="-52.09" fill="url(#SvgjsRadialGradient1007)"></circle><circle r="25" cx="1543.34" cy="249.84" fill="url(#SvgjsRadialGradient1007)"></circle><circle r="5" cx="-79.7" cy="693.79" fill="#8b9ad9"></circle><circle r="5" cx="38.31" cy="550.34" fill="#8b9ad9"></circle><circle r="5" cx="56.84" cy="670.14" fill="#8b9ad9"></circle><circle r="5" cx="255.56" cy="547.06" fill="#8b9ad9"></circle><circle r="5" cx="246.66" cy="680.73" fill="#8b9ad9"></circle><circle r="5" cx="338.3" cy="554.36" fill="#8b9ad9"></circle><circle r="5" cx="402.8" cy="671.33" fill="#8b9ad9"></circle><circle r="5" cx="557.78" cy="530.62" fill="#8b9ad9"></circle><circle r="5" cx="495.03" cy="667.16" fill="#8b9ad9"></circle><circle r="5" cx="699.83" cy="358.64" fill="#8b9ad9"></circle><circle r="5" cx="696.01" cy="490.01" fill="#8b9ad9"></circle><circle r="5" cx="664.86" cy="658.99" fill="#8b9ad9"></circle><circle r="5" cx="859.96" cy="380.65" fill="#8b9ad9"></circle><circle r="5" cx="851.3" cy="661.06" fill="#8b9ad9"></circle><circle r="5" cx="1138.54" cy="89.97" fill="#8b9ad9"></circle><circle r="5" cx="1140.6" cy="252.61" fill="#8b9ad9"></circle><circle r="5" cx="1108.25" cy="675.81" fill="#8b9ad9"></circle><circle r="5" cx="1293.17" cy="-38.08" fill="#8b9ad9"></circle><circle r="5" cx="1300.35" cy="51.85" fill="#8b9ad9"></circle><circle r="5" cx="1260.59" cy="550.25" fill="#8b9ad9"></circle><circle r="5" cx="1250.87" cy="649.46" fill="#8b9ad9"></circle><circle r="5" cx="1402.15" cy="-42.45" fill="#8b9ad9"></circle><circle r="5" cx="1450.65" cy="41.02" fill="#8b9ad9"></circle><circle r="5" cx="1453.07" cy="381.04" fill="#8b9ad9"></circle><circle r="5" cx="1417.48" cy="526.36" fill="#8b9ad9"></circle><circle r="5" cx="1409.22" cy="708.67" fill="#8b9ad9"></circle><circle r="5" cx="1556.63" cy="106.61" fill="#8b9ad9"></circle><circle r="5" cx="1559.99" cy="365.8" fill="#8b9ad9"></circle><circle r="5" cx="1587.12" cy="660.28" fill="#8b9ad9"></circle></g><defs><mask id="SvgjsMask1006"><rect width="1440" height="560" fill="#ffffff"></rect></mask><radialGradient id="SvgjsRadialGradient1007"><stop stop-color="#ffffff" offset="0.1"></stop><stop stop-color="rgba(23, 53, 179, 1)" offset="0.2"></stop><stop stop-color="rgba(23, 53, 179, 0)" offset="1"></stop></radialGradient></defs></svg>