<svg xmlns="http://www.w3.org/2000/svg" version="1.1" xmlns:xlink="http://www.w3.org/1999/xlink" xmlns:svgjs="http://svgjs.com/svgjs" width="1440" height="560" preserveAspectRatio="none" viewBox="0 0 1440 560"><g mask="url(&quot;#SvgjsMask1014&quot;)" fill="none"><rect width="1440" height="560" x="0" y="0" fill="#0e2a47"></rect><path d="M 0,258 C 24,230.8 72,127 120,122 C 168,117 192,235 240,233 C 288,231 312,102.6 360,112 C 408,121.4 432,290.4 480,280 C 528,269.6 552,85.8 600,60 C 648,34.2 672,155.6 720,151 C 768,146.4 792,13.8 840,37 C 888,60.2 912,250.8 960,267 C 1008,283.2 1032,115.4 1080,118 C 1128,120.6 1152,295.2 1200,280 C 1248,264.8 1272,62.2 1320,42 C 1368,21.8 1416,151.6 1440,179L1440 560L0 560z" fill="#184a7e"></path><path d="M 0,407 C 48,421.2 144,488.8 240,478 C 336,467.2 384,340 480,353 C 576,366 624,536.4 720,543 C 816,549.6 864,384.6 960,386 C 1056,387.4 1104,554.8 1200,550 C 1296,545.2 1392,399.6 1440,362L1440 560L0 560z" fill="#2264ab"></path></g><defs><mask id="SvgjsMask1014"><rect width="1440" height="560" fill="#ffffff"></rect></mask></defs></svg>